<?xml version="1.0" encoding="windows-1252"?>
<!-- Generator: Adobe Illustrator 19.0.0, SVG Export Plug-In . SVG Version: 6.00 Build 0)  -->
<svg version="1.1" id="Capa_1" xmlns="http://www.w3.org/2000/svg" xmlns:xlink="http://www.w3.org/1999/xlink" x="0px" y="0px" viewBox="0 0 512 512" style="enable-background:new 0 0 512 512;" xml:space="preserve">
<path style="fill:#AEADB3;" d="M316,421H196c-8.401,0-15,6.599-15,15v31c0,24.901,20.099,45,45,45h60c24.901,0,45-20.099,45-45v-31  C331,427.599,324.401,421,316,421z"/>
<path style="fill:#8B8892;" d="M331,436v31c0,24.901-20.099,45-45,45h-30v-91h60C324.401,421,331,427.599,331,436z"/>
<path style="fill:#D9D9D9;" d="M361,391v15c0,24.901-20.099,45-45,45H196c-24.901,0-45-20.099-45-45v-15l35.7-30h136.199L361,391z"/>
<path style="fill:#C8C6CD;" d="M361,391v15c0,24.901-20.099,45-45,45h-60v-90h66.899L361,391z"/>
<path style="fill:#FFD400;" d="M369.401,41.201C337.301,15.099,297.1,0.3,256,0c-12.9,0-25.8,1.199-38.699,3.9  C149.5,18.3,94.6,74.2,80.2,141.7c-12.301,57.599,2.699,115.499,41.1,158.699c19.799,22.2,29.7,49.2,29.7,75.3V391h210v-15.3  c0-27.9,11.4-54.901,30.3-76.199c28.799-33.001,44.7-75,44.7-118.5C436,126.7,411.7,75.7,369.401,41.201z"/>
<path style="fill:#FDBF00;" d="M436,181c0,43.5-15.901,85.499-44.7,118.5c-18.9,21.299-30.3,48.3-30.3,76.2V391H256V0  c41.1,0.3,81.301,15.099,113.401,41.201C411.7,75.7,436,126.7,436,181z"/>
<g>
	<path style="fill:#E5E5E5;" d="M45,211H15c-8.291,0-15-6.709-15-15s6.709-15,15-15h30c8.291,0,15,6.709,15,15S53.291,211,45,211z"/>
	<path style="fill:#E5E5E5;" d="M40.605,131.605c-3.838,0-7.676-1.465-10.605-4.395L8.789,106c-5.859-5.859-5.859-15.352,0-21.211   s15.352-5.859,21.211,0L51.211,106c5.859,5.859,5.859,15.352,0,21.211C48.281,130.141,44.443,131.605,40.605,131.605z"/>
	<path style="fill:#E5E5E5;" d="M8.789,307.211c-5.859-5.859-5.859-15.352,0-21.211L30,264.789c5.859-5.859,15.352-5.859,21.211,0   s5.859,15.352,0,21.211L30,307.211C24.14,313.07,14.649,313.07,8.789,307.211z"/>
</g>
<g>
	<path style="fill:#C8C6CD;" d="M497,211h-30c-8.291,0-15-6.709-15-15s6.709-15,15-15h30c8.291,0,15,6.709,15,15   S505.291,211,497,211z"/>
	<path style="fill:#C8C6CD;" d="M460.789,127.211c-5.859-5.859-5.859-15.352,0-21.211L482,84.789c5.859-5.859,15.352-5.859,21.211,0   s5.859,15.352,0,21.211L482,127.211C476.14,133.07,466.649,133.07,460.789,127.211z"/>
	<path style="fill:#C8C6CD;" d="M482,307.211L460.789,286c-5.859-5.859-5.859-15.352,0-21.211s15.352-5.859,21.211,0L503.211,286   c5.859,5.859,5.859,15.352,0,21.211C497.351,313.07,487.86,313.07,482,307.211z"/>
</g>
<path style="fill:#5A5A5A;" d="M369.4,194.5l-8.7-5.1c0.3-5.7,0.3-11.1,0-16.8l8.7-5.1c7.2-4.2,9.6-13.5,5.4-20.4l-30-52.2  c-1.8-3.3-5.1-5.7-9-6.9c-3.9-0.9-7.8-0.6-11.4,1.5l-9,5.4c-4.8-3.3-9.3-6-14.4-8.4V76c0-8.4-6.6-15-15-15h-60c-8.4,0-15,6.6-15,15  v10.5c-5.1,2.4-9.6,5.1-14.4,8.4l-9-5.4c-7.2-4.2-16.5-1.8-20.4,5.4l-30,52.2c-4.2,6.9-1.8,16.2,5.4,20.4l8.7,5.1  c-0.3,5.7-0.3,11.1,0,16.8l-8.7,5.1c-7.2,4.2-9.6,13.5-5.4,20.4l30,52.2c4.2,7.2,13.5,9.3,20.4,5.4l9-5.4c4.8,3.3,9.3,6,14.4,8.4  V286c0,8.4,6.6,15,15,15h60c8.4,0,15-6.6,15-15v-10.5c5.1-2.4,9.6-5.1,14.4-8.4l9,5.4c6.9,3.9,16.2,1.8,20.4-5.4l30-52.2  C379,208,376.6,198.7,369.4,194.5z M257.5,243c-0.5,0-1-0.01-1.5-0.02c-32.72-0.8-59-27.57-59-60.48s26.28-59.68,59-60.48  c0.5-0.01,1-0.02,1.5-0.02c33.41,0,60.5,27.09,60.5,60.5S290.91,243,257.5,243z"/>
<path style="fill:#444444;" d="M374.8,214.9l-30,52.2c-4.2,7.2-13.5,9.3-20.4,5.4l-9-5.4c-4.8,3.3-9.3,6-14.4,8.4V286  c0,8.4-6.6,15-15,15h-30v-58.02c0.5,0.01,1,0.02,1.5,0.02c33.41,0,60.5-27.09,60.5-60.5S290.91,122,257.5,122  c-0.5,0-1,0.01-1.5,0.02V61h30c8.4,0,15,6.6,15,15v10.5c5.1,2.4,9.6,5.1,14.4,8.4l9-5.4c3.6-2.1,7.5-2.4,11.4-1.5  c3.9,1.2,7.2,3.6,9,6.9l30,52.2c4.2,6.9,1.8,16.2-5.4,20.4l-8.7,5.1c0.3,5.7,0.3,11.1,0,16.8l8.7,5.1  C376.6,198.7,379,208,374.8,214.9z"/>
<path style="fill:#787780;" d="M256,106c-41.353,0-75,33.647-75,75s33.647,75,75,75s75-33.647,75-75S297.353,106,256,106z M256,226  c-24.901,0-45-20.099-45-45s20.099-45,45-45s45,20.099,45,45S280.901,226,256,226z"/>
<path style="fill:#5A5A5A;" d="M256,106v30c24.901,0,45,20.099,45,45s-20.099,45-45,45v30c41.353,0,75-33.647,75-75  S297.353,106,256,106z"/>
<g>
</g>
<g>
</g>
<g>
</g>
<g>
</g>
<g>
</g>
<g>
</g>
<g>
</g>
<g>
</g>
<g>
</g>
<g>
</g>
<g>
</g>
<g>
</g>
<g>
</g>
<g>
</g>
<g>
</g>
</svg>